<svg xmlns="http://www.w3.org/2000/svg" id="svg2" width="320" height="80">
  <g id="g6" transform="translate(0 -120)">
    <circle id="path4460" cx="256.1546" cy="155.6432" r="63.2369" fill="#d9e5ec" stroke-width="2.0151"/>
    <g id="g10">
      <g id="g12">
        <path id="path14" d="M88.154 146.2313c0 4.2666 2.5344 6.9105 6.564 6.9105s6.6005-2.644 6.6005-6.9105c0-4.267-2.571-6.9107-6.6005-6.9107-4.0296 0-6.564 2.6438-6.564 6.9103zm3.4096 0c0-2.6987 1.1487-4.139 3.1544-4.139 2.006 0 3.1728 1.4404 3.1728 4.139 0 2.6983-1.1486 4.1388-3.1724 4.1388-2.0057 0-3.1543-1.422-3.1543-4.139zm18.4645 1.8233c0 1.6046-.711 2.5345-1.823 2.5345-1.185 0-1.896-.893-1.896-2.534 0-1.768.638-2.68 1.842-2.68s1.878.93 1.878 2.681zm-6.837 8.6063h3.155v-5.088c.638.984 1.641 1.513 2.918 1.513 2.298 0 4.048-2.042 4.048-5.179 0-3.063-1.696-5.069-4.084-5.069-1.24 0-2.151.492-2.862 1.55v-1.295h-3.172v13.566zm17.839-6.929c-.218.693-.765 1.057-1.622 1.057-1.13 0-1.732-.73-1.732-2.097h6.546c.018-.182.018-.383.018-.565 0-3.373-1.896-5.361-4.941-5.361-2.953 0-4.868 1.969-4.868 5.214 0 3.154 1.878 5.087 4.869 5.087 2.48 0 4.212-1.222 4.778-3.337h-3.045zm-3.446-2.826c.128-1.295.784-1.988 1.805-1.988 1.094 0 1.787.729 1.805 1.987h-3.61zm8.29 5.871h3.155v-3.246c0-1.331.037-2.206.329-2.699.383-.62 1.003-.894 1.969-.894.237 0 .511.018.785.054v-3.136c-1.549.018-2.516.601-3.191 1.932v-1.696h-3.045v9.682zm16.684 0v-.365c-.328-.164-.474-.675-.474-1.532v-3.665c0-1.331-.036-2.316-.638-3.1-.674-.857-1.86-1.258-3.555-1.258-2.753 0-4.248 1.039-4.558 3.245h2.918c.128-.711.657-1.094 1.569-1.094.821 0 1.258.292 1.258.857v.237c0 .747-1.203.602-3.445 1.13-1.714.401-2.571 1.386-2.571 3.009 0 1.714 1.131 2.844 3.027 2.844 1.204 0 2.188-.419 3.082-1.313.037.364.091.693.165 1.002h3.228zm-3.482-4.559v1.112c0 1.021-.765 1.695-1.841 1.695-.711 0-1.166-.474-1.166-1.149 0-.584.328-.875 1.04-1.076.711-.201 1.422-.237 1.969-.584zm4.158-3.209h1.295v3.756c0 3.008.347 4.23 2.863 4.23.62 0 1.258-.073 1.897-.201v-2.024c-.145.018-.291.018-.401.018-1.003 0-1.185-.42-1.185-1.587v-4.194h1.623v-1.915H147.7v-2.735h-3.1725v2.735h-1.2948v1.915zm7.537 7.767h3.155v-9.682h-3.155v9.682zm0-10.557h3.155v-2.553h-3.155v2.552zm4.826 5.707c0 3.245 1.896 5.178 5.124 5.178s5.142-1.951 5.142-5.179-1.914-5.179-5.141-5.179c-3.209 0-5.123 1.932-5.123 5.178zm3.246 0c0-1.787.693-2.735 1.878-2.735s1.897.948 1.897 2.735-.711 2.753-1.896 2.753-1.878-.967-1.878-2.754zm8.698 4.85h3.155v-5.178c0-1.587.456-2.334 1.605-2.334 1.258 0 1.331.857 1.331 2.644v4.868h3.173v-6.291c0-2.48-.875-3.629-3.227-3.629-1.331 0-2.279.51-2.935 1.568v-1.331h-3.1v9.682zm10.941-2.954c.164 2.042 1.86 3.263 4.778 3.263 2.99 0 4.65-1.295 4.65-3.355 0-.894-.309-1.55-1.021-2.079-.419-.31-1.367-.602-2.807-1.021-1.331-.383-2.133-.474-2.133-1.149 0-.529.42-.839 1.185-.839.821 0 1.277.31 1.404.966h3.044c-.182-1.897-1.714-2.863-4.522-2.863-2.662 0-4.212 1.221-4.212 3.154 0 1.549.985 2.224 3.155 2.935 1.732.565 2.7898.529 2.7898 1.313 0 .583-.547.948-1.441.948-1.058 0-1.623-.42-1.696-1.277h-3.173zm16.72 2.953h3.337v-4.905h2.243c1.149 0 1.714.437 1.824 1.477.127 1.167-.037 2.334.365 3.428h3.519v-.456c-.638-.328-.474-1.258-.565-2.863-.091-1.55-.256-2.389-1.66-2.936 1.404-.711 2.061-1.732 2.061-3.209 0-2.535-1.568-3.647-4.85-3.647H195.2v13.11zm3.337-7.494v-2.991h2.589c1.258 0 1.878.455 1.878 1.422 0 1.094-.62 1.568-1.969 1.568h-2.498zm15.943 4.449c-.219.692-.766 1.057-1.623 1.057-1.13 0-1.732-.73-1.732-2.097h6.546c.019-.183.019-.383.019-.566 0-3.373-1.896-5.361-4.941-5.361-2.954 0-4.868 1.969-4.868 5.215 0 3.154 1.878 5.087 4.868 5.087 2.48 0 4.212-1.222 4.778-3.337h-3.045zm-3.446-2.827c.127-1.295.784-1.988 1.805-1.988 1.094 0 1.787.729 1.805 1.987h-3.61zm7.834 2.917c.164 2.042 1.86 3.263 4.778 3.263 2.99 0 4.65-1.295 4.65-3.355 0-.894-.31-1.55-1.021-2.079-.419-.31-1.367-.602-2.808-1.022-1.331-.382-2.133-.474-2.133-1.148 0-.529.42-.839 1.186-.839.82 0 1.276.309 1.404.966h3.045c-.182-1.897-1.714-2.863-4.522-2.863-2.662 0-4.212 1.222-4.212 3.155 0 1.55.985 2.225 3.154 2.936 1.733.565 2.79.529 2.79 1.313 0 .583-.547.948-1.44.948-1.058 0-1.623-.42-1.696-1.277h-3.173zm17.231-.092c-.218.693-.765 1.057-1.622 1.057-1.13 0-1.732-.729-1.732-2.097h6.546c.019-.182.019-.383.019-.565 0-3.374-1.896-5.361-4.941-5.361-2.954 0-4.868 1.969-4.868 5.214 0 3.155 1.878 5.087 4.868 5.087 2.48 0 4.212-1.222 4.777-3.337H236.1zm-3.446-2.826c.128-1.295.784-1.988 1.805-1.988 1.094 0 1.787.729 1.806 1.987h-3.61zm17.279 5.871v-.365c-.328-.164-.474-.675-.474-1.532v-3.664c0-1.331-.036-2.316-.638-3.1-.674-.857-1.859-1.258-3.555-1.258-2.753 0-4.248 1.039-4.558 3.245h2.918c.128-.711.657-1.094 1.568-1.094.821 0 1.258.292 1.258.857v.237c0 .748-1.203.602-3.445 1.13-1.714.401-2.571 1.385-2.571 3.008 0 1.714 1.131 2.845 3.027 2.845 1.203 0 2.188-.42 3.081-1.313.037.364.092.692.165 1.003h3.227zm-3.482-4.559v1.112c0 1.021-.765 1.695-1.841 1.695-.711 0-1.167-.474-1.167-1.149 0-.584.328-.875 1.04-1.076.711-.201 1.422-.237 1.969-.584zm5.142 4.558h3.155v-3.245c0-1.331.037-2.206.329-2.699.383-.62 1.003-.893 1.969-.893.237 0 .511.018.784.055v-3.136c-1.549.018-2.516.602-3.19 1.933v-1.696h-3.045v9.682zm16.66-3.592h-3.118c-.182.948-.674 1.403-1.495 1.403-1.112 0-1.641-.875-1.641-2.644 0-1.823.584-2.771 1.678-2.771.748 0 1.222.456 1.404 1.349h3.191c-.201-2.352-1.914-3.775-4.577-3.775-3.026 0-4.959 1.987-4.959 5.287 0 3.027 1.897 5.051 4.796 5.051 2.662 0 4.413-1.441 4.722-3.902zm1.575 3.592h3.154v-5.178c0-1.587.456-2.334 1.605-2.334 1.258 0 1.331.857 1.331 2.644v4.868h3.173v-6.655c0-2.152-1.094-3.282-3.118-3.282-1.312 0-2.242.474-2.972 1.513v-4.686h-3.172v13.11zM90.252 175.611h1.2034v-11.4325l4.2665 11.4324h1.112l4.175-11.433v11.432h1.203v-13.109h-1.696l-4.248 11.542-4.322-11.542h-1.695v13.11zm15.2856-5.4156c.1094-2.0787 1.313-3.3186 3.0088-3.3186s2.8263 1.2217 2.9175 3.3186h-5.926zm0 .8934h7.0564v-.3647c0-3.081-1.5133-4.813-4.0294-4.813-2.571 0-4.1575 1.823-4.1575 5.014 0 3.136 1.569 4.941 4.122 4.941 2.17 0 3.702-1.258 3.939-3.172h-1.094c-.219 1.386-1.294 2.207-2.771 2.207-1.823 0-3.063-1.385-3.063-3.756v-.055zm10.4352-7.6578h-1.094v2.7168h-1.2945v.8934h1.2948v6.892c0 1.2945.274 1.9144 1.496 1.9144.42 0 .857-.073 1.35-.2007v-.876c-.419.091-.766.182-1.057.182-.601 0-.692-.328-.692-1.021v-6.892h1.751v-.894h-1.75v-2.716zm3.507 12.18h1.094v-5.5796c0-1.951 1.185-3.1546 2.917-3.1546 1.9876 0 2.334.9665 2.334 2.9903v5.744h1.0942v-5.761c0-1.148 0-1.987-.383-2.607-.5104-.82-1.5496-1.331-2.8262-1.331-1.3675 0-2.425.583-3.136 1.714v-5.123h-1.094v13.11zm9.3902-4.7225c0 3.1724 1.5864 4.9595 4.3396 4.9595 2.7532 0 4.3578-1.787 4.3578-4.9595 0-3.1725-1.6046-4.9778-4.3578-4.9778s-4.3396 1.805-4.3396 4.9778zm1.1305 0c0-2.5893 1.2035-4.0117 3.209-4.0117 2.024 0 3.2275 1.422 3.2275 4.0113 0 2.59-1.2036 3.994-3.2274 3.994-2.0056 0-3.209-1.404-3.209-3.993zm17.644-8.3876h-1.0942v5.287c-.6748-1.24-1.7685-1.878-3.2637-1.878-2.5343 0-4.212 1.841-4.212 4.977s1.641 4.977 4.1393 4.977c1.477 0 2.607-.62 3.336-1.86v1.604h1.094V162.5zm-7.4398 8.388c0-2.59 1.1852-4.012 3.2273-4.012 2.024 0 3.2092 1.422 3.2092 4.011 0 2.607-1.167 4.011-3.2092 4.011-2.0056 0-3.2273-1.459-3.2273-4.012zm10.5572-.693c.109-2.079 1.312-3.319 3.008-3.319s2.826 1.221 2.917 3.318h-5.926zm0 .893h7.056v-.365c0-3.082-1.514-4.814-4.03-4.814-2.571 0-4.158 1.823-4.158 5.014 0 3.136 1.568 4.941 4.12 4.941 2.169 0 3.701-1.258 3.938-3.173h-1.094c-.219 1.385-1.295 2.206-2.772 2.206-1.824 0-3.064-1.386-3.064-3.756v-.055zm8.995 4.522h1.094v-5.58c0-1.97 1.148-3.155 2.881-3.155 1.932 0 2.352.912 2.352 2.826v5.907h1.094v-6.036c0-1.003 0-1.751-.383-2.334-.511-.839-1.532-1.331-2.845-1.331-1.386 0-2.425.583-3.137 1.75v-1.513h-1.058v9.463zm9.828 0h1.094v-1.641c.656 1.239 1.786 1.896 3.245 1.896 2.589 0 4.266-1.842 4.266-4.978 0-3.137-1.641-4.978-4.194-4.978-1.514 0-2.608.638-3.319 1.914V162.5h-1.094v13.11zm1.039-4.723c0-2.608 1.185-4.012 3.209-4.012 2.006 0 3.227 1.422 3.227 4.011s-1.185 4.011-3.228 4.011c-2.006 0-3.209-1.477-3.209-4.012zm15.632 3.355v.145c0 .875.456 1.313 1.349 1.313.164 0 .437-.018.784-.091v-.821c-.183.018-.328.018-.401.018-.657 0-.675-.256-.675-.876v-5.16c0-1.878-1.204-2.863-3.465-2.863-2.316 0-3.72 1.203-3.756 3.063h1.076c.073-1.386.984-2.097 2.68-2.097 1.732 0 2.352.638 2.352 2.06 0 .966-.328.948-1.659 1.221-1.258.11-2.407.128-3.41.584-.985.456-1.514 1.276-1.514 2.37 0 1.641 1.204 2.735 3.136 2.735 1.331 0 2.498-.529 3.501-1.605zm-.061-3.611v1.331c0 1.823-1.368 2.917-3.337 2.917-1.313 0-2.134-.712-2.134-1.787 0-.966.729-1.641 2.115-2.006 1.386-.073 2.534-.146 3.337-.456zm3.653 4.978h1.094v-5.58c0-1.97 1.148-3.155 2.881-3.155 1.933 0 2.352.911 2.352 2.826v5.908h1.094v-6.036c0-1.003 0-1.751-.383-2.334-.511-.839-1.532-1.331-2.845-1.331-1.386 0-2.425.583-3.136 1.75v-1.514h-1.058v9.463zm9.834 0h1.094v-3.556l1.787-1.714 3.519 5.269h1.258l-4.011-5.999 3.574-3.465h-1.404l-4.723 4.595v-8.24h-1.094v13.11z"/>
      </g>
    </g>
    <g id="g56">
      <g id="g58" transform="matrix(.51917 0 0 -.51917 -6.22 422.737)" clip-path="url(#clipPath288-5-2)">
        <path id="path60" d="M120.25 535.04c.39 0 .71.32.71.71 0 .39-.32.71-.71.71-.39 0-.71-.32-.71-.71 0-.39.32-.71.71-.71"/>
        <g id="g62">
          <path id="path64" d="M60.709 476.93c-.39 0-.71-.32-.71-.71 0-.39.32-.71.71-.71.39 0 .71.32.71.71 0 .39-.32.71-.71.71"/>
        </g>
        <g id="g66">
          <path id="path68" d="M65.553 545.67c-.51 0-.96-.17-1.34-.52-.38-.35-.58-.76-.58-1.24v-6.39h-5.85v6.4c0 .48-.19.89-.56 1.24-.37.34-.83.51-1.36.51-.53 0-.98-.17-1.36-.52-.38-.35-.56-.76-.56-1.24v-16.3c0-.48.19-.89.56-1.25.37-.36.83-.53 1.36-.53.53 0 .98.18 1.36.54.37.36.56.77.56 1.25v6.39h5.85v-6.39c0-.48.19-.89.58-1.25.38-.36.83-.53 1.35-.53.53 0 .98.18 1.36.54.38.36.56.77.56 1.25v16.3c0 .48-.19.89-.58 1.24-.39.33-.84.5-1.35.5"/>
        </g>
        <g id="g70">
          <path id="path72" d="M96.449 477.51c-.43.31-.97.47-1.61.47h-2.99c-.46 0-.86-.17-1.21-.51-.35-.34-.52-.75-.52-1.22 0-.48.17-.88.52-1.22.35-.34.75-.51 1.21-.51h1.43v-4.29c-.31-.16-.65-.3-1.02-.41-.37-.11-.79-.16-1.26-.16-1.23 0-2.08.35-2.57 1.04-.49.7-.73 1.63-.73 2.8v5.44c0 1.19.24 2.13.73 2.82s1.34 1.03 2.57 1.03c.44 0 .84-.06 1.21-.18s.72-.28 1.07-.48l.28-.16c.18-.11.35-.21.5-.29.15-.08.38-.12.69-.12.53 0 .97.17 1.31.49.34.33.51.72.51 1.16 0 .4-.16.78-.48 1.14-.32.36-.75.67-1.28.94-.53.26-1.14.48-1.81.63-.68.16-1.38.23-2.12.23-1.21 0-2.25-.17-3.13-.51-.9-.35-1.63-.83-2.21-1.46-.58-.64-1-1.4-1.28-2.29-.27-.88-.41-1.87-.41-2.95v-5.44c0-1.08.14-2.06.41-2.95.28-.89.7-1.65 1.28-2.28.58-.63 1.31-1.12 2.19-1.46.88-.34 1.92-.51 3.13-.51.72 0 1.44.07 2.17.21.73.14 1.4.36 2.01.66.6.3 1.1.69 1.48 1.15.39.47.58 1.02.58 1.66v6.07c0 .66-.22 1.15-.65 1.46"/>
        </g>
        <g id="g74">
          <path id="path76" d="M100.81 515.43c-.21.14-.44.24-.69.3-.25.06-.49.1-.73.1-.42 0-.79-.12-1.11-.37-.32-.25-.53-.59-.64-1.03l-1.76-7c-.2-.77-.35-1.53-.45-2.29-.1-.76-.22-1.52-.37-2.29-.15.77-.26 1.53-.36 2.29-.09.76-.24 1.52-.44 2.29l-1.59 6.45c-.15.62-.37 1.12-.69 1.48-.31.37-.81.55-1.51.55-.75 0-1.27-.18-1.55-.53-.28-.36-.51-.85-.67-1.49l-1.62-6.45c-.18-.73-.32-1.49-.41-2.28-.09-.79-.21-1.55-.36-2.28-.15.77-.26 1.53-.36 2.29-.09.76-.24 1.51-.44 2.26l-1.81 7.08c-.11.46-.33.79-.67 1-.34.21-.71.32-1.11.32-.24 0-.48-.04-.73-.11s-.47-.18-.66-.33c-.19-.15-.35-.32-.48-.52s-.19-.43-.19-.69c.02-.05.03-.11.03-.16.04-.13.06-.25.08-.36l4.03-15.86c.13-.42.4-.81.81-1.18.41-.37.9-.55 1.47-.55.73 0 1.26.18 1.58.55.32.36.55.75.67 1.15l1.65 6.78c.18.71.32 1.44.41 2.18.09.74.2 1.48.33 2.21.13-.73.24-1.47.33-2.21.09-.74.23-1.47.41-2.18l1.62-6.72c.15-.46.4-.87.75-1.22.36-.36.87-.53 1.52-.53.66 0 1.16.17 1.51.52.35.35.6.75.74 1.21l4.12 16c.04.09.06.16.06.22v.14c0 .29-.07.54-.21.75-.13.2-.3.37-.51.51"/>
        </g>
        <g id="g78">
          <path id="path80" d="M84.469 542.14h4.09v-14.53c0-.48.19-.9.57-1.25.38-.35.84-.53 1.38-.53.54 0 1 .18 1.38.53.38.35.57.77.57 1.25v14.53h4c.54 0 1 .17 1.39.52.39.34.58.76.58 1.24 0 .5-.2.92-.61 1.26-.42.34-.87.51-1.37.51h-11.98c-.28 0-.53-.06-.76-.17-.24-.11-.44-.25-.61-.43-.18-.17-.32-.36-.42-.57-.1-.2-.15-.4-.15-.61 0-.48.18-.89.55-1.23.37-.35.83-.52 1.39-.52"/>
        </g>
        <g id="g82">
          <path id="path84" fill="#009a93" d="M125.25 466.29c-.37 0-.72.09-1.06.26-.34.17-.6.41-.78.7l-6.37 11.09v-10.26c.01-.48-.19-.9-.57-1.25-.39-.36-.84-.54-1.37-.54-.53 0-.98.18-1.34.54-.37.36-.55.77-.55 1.25v16.19c0 .53.19.97.56 1.33.38.36.86.54 1.44.54.37 0 .72-.09 1.06-.28.34-.18.61-.43.81-.74.6-1.06 1.16-2.03 1.66-2.91.5-.88 1-1.74 1.48-2.59.49-.85.98-1.73 1.5-2.63.51-.91 1.09-1.91 1.73-3v10.37c0 .48.19.89.58 1.25.39.36.84.54 1.37.54.53 0 .98-.18 1.35-.53.37-.36.55-.77.55-1.25v-16.19c-.02-.54-.21-.97-.58-1.34-.38-.37-.87-.55-1.47-.55"/>
        </g>
        <g id="g86">
          <path id="path88" fill="#009a93" d="M118.32 514.15c0 .48.19.89.56 1.24.38.34.83.52 1.36.52.53 0 .98-.18 1.36-.52.37-.35.56-.76.56-1.24v-16.33c0-.48-.19-.89-.56-1.24-.37-.35-.83-.52-1.36-.52-.53 0-.98.18-1.36.52-.37.36-.56.77-.56 1.24v16.33z"/>
        </g>
      </g>
    </g>
    <path id="path16" d="M210.3012 167.2788h1.1887v-1.9458h1.62v1.9458h1.189v-4.6172h-1.189v1.639h-1.62v-1.639h-1.189v4.617zm4.6485-1.708c0 1.145.6694 1.827 1.802 1.827 1.1386 0 1.808-.6884 1.808-1.827 0-1.1387-.6757-1.827-1.808-1.827-1.1326 0-1.802.682-1.802 1.827zm1.145 0c0-.632.244-.9635.663-.9635.4193 0 .6696.3317.6696.9636 0 .631-.2503.969-.6698.969-.4194 0-.663-.338-.663-.97zm6.2188.4442h-1.101c-.0623.3317-.2377.4943-.5254.4943-.394 0-.575-.3065-.575-.932 0-.6445.207-.976.588-.976.263 0 .432.163.495.4757h1.127c-.068-.8257-.675-1.3262-1.614-1.3262-1.063 0-1.745.701-1.745 1.8645 0 1.064.669 1.777 1.689 1.777.939 0 1.552-.507 1.664-1.3766zm.557 1.2638h1.1138v-1.8268c0-.5566.163-.8194.5633-.8194.4444 0 .4693.3005.4693.9325v1.715h1.12v-2.346c0-.757-.388-1.157-1.101-1.157-.463 0-.789.169-1.045.532v-1.651h-1.12v4.618zm3.854-1.0448c.0564.7197.6568 1.1512 1.6828 1.1512 1.0514 0 1.6393-.4565 1.6393-1.1824 0-.3126-.1065-.5442-.3568-.7317-.15-.106-.4818-.212-.9882-.356-.469-.137-.7508-.169-.7508-.406 0-.187.15-.294.4194-.294.2878 0 .4507.107.4944.338h1.07c-.0624-.669-.6007-1.007-1.5952-1.007-.9383 0-1.4825.432-1.4825 1.114 0 .545.344.782 1.113 1.033.613.201.982.188.982.463 0 .207-.194.332-.507.332-.375 0-.569-.15-.594-.45h-1.12zm7.0948-.219h-1.101c-.0623.3317-.2377.4943-.5254.4943-.395 0-.576-.3065-.576-.932 0-.6445.206-.976.588-.976.262 0 .432.163.494.4757h1.126c-.069-.8257-.676-1.3262-1.614-1.3262-1.064 0-1.746.701-1.746 1.8645 0 1.064.669 1.777 1.689 1.777.938 0 1.552-.507 1.664-1.3766zm.5508 1.2638h1.114v-1.8268c0-.5566.163-.8194.564-.8194.445 0 .47.3005.47.9325v1.715h1.12v-2.346c0-.757-.388-1.157-1.101-1.157-.462 0-.788.169-1.044.532v-1.651h-1.12v4.618zm7.252-3.4095h-1.119v1.827c0 .5572-.156.82-.556.82-.381 0-.469-.2316-.469-.738V163.87h-1.12v2.3464c0 .7633.388 1.1512 1.139 1.1512.438 0 .764-.175 1.033-.5505v.47h1.095v-3.41zm.77 3.41h1.12v-4.6177h-1.119v4.6172zm4.036-1.076c-.075.244-.269.3753-.569.3753-.4 0-.613-.2565-.613-.7383h2.309c.006-.0624.006-.1376.006-.2 0-1.1886-.669-1.8895-1.739-1.8895-1.038 0-1.714.6947-1.714 1.8396 0 1.1137.663 1.7893 1.715 1.7893.876 0 1.483-.4315 1.683-1.176h-1.07zm-1.213-.995c.044-.4564.275-.7005.638-.7005.388 0 .632.2565.638.701h-1.27zm4.88 2.071h1.164v-1.4515l.401-.4004 1.295 1.852h1.414l-1.914-2.6776 1.871-1.9394h-1.42l-1.645 1.758v-1.758h-1.163v4.617zm4.305-1.708c0 1.145.67 1.827 1.802 1.827 1.139 0 1.808-.688 1.808-1.8266 0-1.1387-.675-1.8268-1.808-1.8268-1.132 0-1.802.682-1.802 1.827zm1.145 0c0-.632.244-.9633.663-.9633.419 0 .67.3318.67.9637 0 .632-.25.97-.669.97-.419 0-.663-.3378-.663-.9697zm3.066 1.7082h1.114v-1.8267c0-.5567.163-.8195.564-.8195.444 0 .469.3006.469.9325v1.714h1.12v-2.2145c0-.876-.306-1.2764-1.138-1.2764-.469 0-.801.181-1.032.55v-.469h-1.095v3.41zm3.854-1.0447c.057.7196.657 1.151 1.683 1.151 1.052 0 1.64-.4564 1.64-1.1822 0-.3127-.107-.5442-.357-.732-.15-.1065-.482-.2126-.988-.3568-.469-.1376-.75-.1688-.75-.4066 0-.1875.15-.294.42-.294.288 0 .451.1065.494.338h1.07c-.062-.6693-.601-1.0073-1.595-1.0073-.938 0-1.483.431-1.483 1.113 0 .544.344.782 1.114 1.032.613.2.983.188.983.463 0 .206-.194.332-.507.332-.375 0-.569-.15-.594-.451h-1.12zm3.585-1.6954h.457v1.32c0 1.0576.125 1.489 1.008 1.489.219 0 .444-.025.669-.0685v-.714c-.05.006-.1.006-.144.006-.35 0-.419-.15-.419-.557v-1.477h.57v-.676h-.569v-.963h-1.12v.963h-.456v.675zm5.825 2.74v-.1312c-.112-.056-.169-.2378-.169-.538v-1.2888c0-.4694-.012-.8132-.225-1.095-.237-.3002-.656-.444-1.251-.444-.969 0-1.495.369-1.607 1.145h1.026c.044-.2504.232-.388.551-.388.288 0 .444.1002.444.3005v.081c0 .263-.425.213-1.213.4-.6.144-.907.488-.907 1.057 0 .6.401 1.001 1.064 1.001.425 0 .769-.15 1.082-.463.012.131.032.244.056.35h1.139zm-1.226-1.6076v.3942c0 .3567-.269.5945-.65.5945-.25 0-.413-.169-.413-.4066 0-.207.113-.307.369-.382.251-.069.501-.081.695-.206zm1.808 1.608h1.114v-1.8267c0-.556.163-.819.563-.819.444 0 .47.301.47.933v1.715h1.12v-2.214c0-.876-.306-1.276-1.138-1.276-.469 0-.801.182-1.032.551v-.469h-1.095v3.41zm3.748 0h3.147v-.8197h-1.739l1.683-1.783v-.8h-2.978v.801h1.59l-1.695 1.783v.82z" class="s0" font-weight="500" font-family="Swiss 721 Heavy"/>
    <path id="path18" d="M211.346 175.3182h.4255v-4.2356h1.439v-.3816h-3.3034v.3816h1.439v4.2356zm1.708-1.9082c.0376-.732.463-1.17 1.0574-1.17.594 0 .9944.4318 1.026 1.17h-2.09zm0 .313l2.4838-.0002v-.1313c0-1.0824-.5317-1.6955-1.42-1.6955-.9073 0-1.464.6444-1.464 1.7643 0 1.1074.551 1.7393 1.4518 1.7393.7632 0 1.3012-.4442 1.389-1.12h-.388c-.0748.4878-.4565.7758-.976.7758-.6445 0-1.076-.488-1.076-1.3203v-.018zm5.462.444c-.0815.563-.457.8947-.97.8947-.6505 0-1.0948-.513-1.0948-1.42 0-.8948.4443-1.4016 1.0824-1.4016.5006 0 .8822.313.9447.801h.3754c-.0374-.682-.563-1.145-1.3137-1.145-.9072 0-1.4826.657-1.4826 1.771 0 1.083.5696 1.727 1.458 1.727.7882 0 1.314-.469 1.389-1.232h-.388zm1.0197 1.1512h.388v-1.9645c0-.6882.419-1.1136 1.026-1.1136.7006 0 .8195.338.8195 1.051v2.021h.388v-2.027c0-.406 0-.701-.138-.919-.1818-.288-.5443-.469-.995-.469-.4818 0-.8572.206-1.1074.601v-1.802h-.388v4.617zm3.4723 0h.3878v-1.9645c0-.6944.4067-1.1136 1.0136-1.1136.682 0 .8258.319.8258.995v2.083h.388v-2.127c0-.35-.006-.619-.1377-.82-.1815-.294-.538-.469-1.001-.469-.488 0-.8572.206-1.1074.62v-.532h-.375v3.335zm3.5035 0h.388v-3.3346h-.388v3.3346zm0-4.0416h.388v-.5756h-.388v.5756zm1.2763 4.0416h.388v-1.2512l.6318-.6007 1.2388 1.8582h.4442l-1.414-2.1144 1.2576-1.219h-.4943l-1.665 1.621v-2.902h-.388v4.617zm3.3222.8947c.3128-.132.4254-.326.4254-.695v-.77h-.4254v.569h.2002v.225c0 .2-.05.319-.2002.425v.244zm4.004-.895h.4568l1.0636-4.104 1.0448 4.104h.463l1.214-4.617h-.4067l-1.0385 3.979-1.0073-3.979h-.5193l-1.0198 3.979-1.026-3.979h-.419l1.195 4.617zm4.88 0h.388v-3.335h-.388v3.334zm0-4.042h.388v-.576h-.388v.575zm1.2764 4.041h.3878v-1.852c0-.77.3442-1.17 1.0074-1.17h.05v-.401h-.044c-.4818 0-.826.206-1.026.669v-.582h-.3754v3.334zm2.4775-4.292h-.388v.957h-.457v.312h.456v2.427c0 .456.093.675.525.675.15 0 .3-.025.475-.069v-.307c-.15.031-.269.062-.376.062-.213 0-.244-.113-.244-.357V172.3h.619v-.3125h-.62v-.957zm1.094 3.253c.018.688.519 1.132 1.295 1.132.782 0 1.27-.407 1.27-.958 0-.538-.307-.764-1.014-.939-.695-.17-1.083-.213-1.083-.701 0-.332.275-.57.744-.57.525 0 .838.269.869.719h.4c-.044-.663-.507-1.058-1.258-1.058-.689 0-1.152.4-1.152.963 0 .575.407.763 1.201.957.588.144.901.212.901.625 0 .369-.319.625-.895.625-.513 0-.876-.326-.882-.789h-.401zm5.58-.113c-.082.563-.457.894-.97.894-.651 0-1.095-.513-1.095-1.42 0-.895.444-1.402 1.082-1.402.5 0 .882.312.945.8h.375c-.038-.682-.563-1.145-1.314-1.145-.907 0-1.483.657-1.483 1.771 0 1.082.569 1.726 1.458 1.726.788 0 1.314-.469 1.389-1.233h-.388zm1.02 1.151h.388v-1.965c0-.689.419-1.114 1.026-1.114.7 0 .819.337.819 1.051v2.021h.388v-2.028c0-.407 0-.701-.138-.92-.182-.288-.545-.47-.995-.47-.482 0-.857.206-1.108.6v-1.802h-.388v4.617zm5.643-.482v.05c0 .306.162.462.475.462.056 0 .156-.006.275-.032v-.288c-.063.006-.113.006-.144.006-.232 0-.238-.088-.238-.307v-1.815c0-.663-.426-1.008-1.22-1.008-.814 0-1.308.425-1.32 1.076h.381c.025-.488.344-.739.945-.739.613 0 .825.225.825.725 0 .338-.113.331-.582.432-.444.037-.845.043-1.201.206-.344.162-.532.45-.532.832 0 .575.425.963 1.107.963.469 0 .882-.188 1.232-.564zm-.019-1.27l.006.469c0 .644-.482 1.026-1.176 1.026-.463 0-.751-.251-.751-.632 0-.338.256-.576.744-.707.488-.025.895-.051 1.176-.163zm1.476 1.751h.388V172.3h.6v-.3127h-.601v-.5698c0-.2943.093-.4195.394-.4195.056 0 .131.0187.212.025v-.3442c-.069-.0127-.138-.019-.201-.019-.538 0-.789.213-.789.7194v.613h-.488v.3127h.488v3.015zm2.027-4.292h-.388v.957h-.457v.313h.456v2.427c0 .456.094.675.525.675.15 0 .3-.025.476-.069v-.307c-.151.031-.269.062-.376.062-.213 0-.244-.113-.244-.357V172.3h.619v-.3127h-.62v-.957zm5.549.957h-.388v1.971c0 .688-.401 1.113-1.032 1.113-.613 0-.814-.294-.814-.933v-2.152h-.388v2.24c0 .782.375 1.182 1.132 1.182.501 0 .863-.2 1.12-.626v.531h.375v-3.335zm.863 3.335h.388v-1.965c0-.695.406-1.114 1.013-1.114.682 0 .825.319.825.994v2.083h.388v-2.127c0-.351-.006-.62-.138-.82-.182-.294-.539-.47-1.001-.47-.488 0-.858.206-1.108.619v-.532h-.376v3.334zm6.318-4.617h-.388v1.864c-.238-.438-.626-.663-1.151-.663-.895 0-1.483.65-1.483 1.751 0 1.107.575 1.751 1.457 1.751.519 0 .919-.219 1.176-.657v.563h.388v-4.616zm-2.622 2.953c0-.914.419-1.414 1.138-1.414.713 0 1.132.5 1.132 1.414 0 .919-.413 1.414-1.133 1.414-.707 0-1.139-.513-1.139-1.414zm8.815 1.664h.337v-2.372h-1.927v.381h1.52v.018c0 1.082-.595 1.72-1.615 1.72-.983 0-1.615-.789-1.615-2.078 0-1.321.613-2.034 1.664-2.034.788 0 1.345.413 1.47 1.082h.438c-.138-.92-.826-1.464-1.915-1.464-1.264 0-2.096.895-2.096 2.421 0 1.526.794 2.446 2.07 2.446.738 0 1.326-.351 1.614-.945l.044.813zm1.414-1.908c.037-.732.462-1.17 1.057-1.17.594 0 .995.432 1.026 1.17H280.9zm0 .313h2.483v-.132c0-1.083-.532-1.696-1.42-1.696-.908 0-1.464.644-1.464 1.764 0 1.107.55 1.739 1.451 1.739.763 0 1.301-.444 1.389-1.12h-.388c-.075.487-.457.775-.976.775-.645 0-1.077-.488-1.077-1.321v-.019zm3.028.556c.018.688.519 1.132 1.295 1.132.782 0 1.27-.407 1.27-.958 0-.538-.307-.763-1.014-.939-.695-.169-1.082-.213-1.082-.701 0-.332.275-.57.744-.57.525 0 .838.269.869.719h.4c-.044-.663-.507-1.057-1.258-1.057-.689 0-1.151.4-1.151.963 0 .575.406.763 1.201.957.588.144.901.212.901.625 0 .369-.32.625-.895.625-.513 0-.876-.326-.882-.789h-.401zm3.797-3.254h-.388v.957h-.457v.312h.456v2.427c0 .456.093.675.525.675.15 0 .3-.025.475-.069v-.307c-.151.031-.269.062-.376.062-.213 0-.244-.113-.244-.357V172.3h.62v-.3125h-.62v-.957zm3.409 3.81v.05c0 .306.162.462.475.462.056 0 .156-.006.275-.032v-.288c-.063.006-.113.006-.144.006-.232 0-.238-.087-.238-.307v-1.814c0-.663-.426-1.007-1.221-1.007-.813 0-1.308.425-1.32 1.076h.381c.025-.488.344-.738.944-.738.613 0 .826.225.826.725 0 .338-.113.331-.582.431-.444.037-.845.044-1.201.206-.344.163-.532.451-.532.832 0 .575.425.963 1.107.963.47 0 .882-.188 1.233-.563zm-.019-1.27l.006.469c0 .644-.482 1.026-1.177 1.026-.464 0-.751-.251-.751-.632 0-.338.256-.576.744-.707.487-.025.894-.051 1.176-.163zm1.32 1.751h.388V170.7h-.388v4.6175zm1.789-4.292h-.388v.957h-.457v.312h.456v2.428c0 .456.094.676.526.676.15 0 .3-.025.475-.069v-.307c-.15.031-.269.062-.376.062-.213 0-.244-.113-.244-.357V172.3h.619v-.3126h-.62v-.957zm3.841.957h-.388v1.97c0 .688-.401 1.113-1.033 1.113-.614 0-.814-.294-.814-.932v-2.152h-.388v2.239c0 .782.376 1.182 1.133 1.182.501 0 .864-.2 1.12-.626v.531h.376v-3.335zm.87 3.334h.388v-1.964c0-.695.406-1.114 1.013-1.114.682 0 .826.319.826.994v2.083h.388v-2.127c0-.351-.006-.62-.137-.82-.182-.294-.538-.469-1.001-.469-.488 0-.858.206-1.108.619v-.532h-.375v3.335zm6.318-3.335h-.388v.575c-.257-.445-.645-.663-1.158-.663-.888 0-1.477.657-1.477 1.752 0 1.107.576 1.752 1.477 1.752.5062 0 .894-.22 1.157-.664v.413c0 .782-.4005 1.188-1.201 1.188-.5635 0-.895-.238-.9327-.638h-.4c.044.588.5444.976 1.339.976 1.0386 0 1.583-.519 1.583-1.539v-3.159zm-2.622 1.67c0-.92.426-1.414 1.139-1.414.707 0 1.133.5 1.133 1.414 0 .913-.432 1.414-1.133 1.414-.688 0-1.139-.513-1.139-1.414z" class="s1" font-weight="300" font-family="Swiss 721 Light"/>
  </g>
  <g id="text4222" fill="#005652" fill-opacity="0" style="line-height:125%" font-size="40" letter-spacing="0" word-spacing="0" font-family="sans-serif">
    <path id="path4275" d="M1278.6305-379.7227q2.832.6055 4.414 2.5196 1.6016 1.914 1.6016 4.726 0 4.316-2.968 6.679-2.969 2.363-8.437 2.363-1.836 0-3.789-.371-1.933-.352-4.004-1.075v-3.809q1.641.957 3.594 1.445 1.953.488 4.082.488 3.711 0 5.645-1.465 1.953-1.465 1.953-4.258 0-2.578-1.816-4.024-1.797-1.465-5.019-1.465h-3.398v-3.242h3.555q2.91 0 4.453-1.153 1.543-1.172 1.543-3.359 0-2.246-1.601-3.438-1.582-1.211-4.551-1.211-1.621 0-3.476.352t-4.082 1.094v-3.516q2.246-.625 4.199-.938 1.973-.313 3.711-.313 4.492 0 7.109 2.05 2.618 2.031 2.618 5.508 0 2.422-1.386 4.101-1.387 1.66-3.945 2.304z"/>
  </g>
</svg>
