<svg xmlns:dc="http://purl.org/dc/elements/1.1/" xmlns:cc="http://creativecommons.org/ns#" xmlns:rdf="http://www.w3.org/1999/02/22-rdf-syntax-ns#" xmlns:svg="http://www.w3.org/2000/svg" xmlns="http://www.w3.org/2000/svg" xmlns:sodipodi="http://sodipodi.sourceforge.net/DTD/sodipodi-0.dtd" xmlns:inkscape="http://www.inkscape.org/namespaces/inkscape" height="200" viewBox="0 0 1920 200" width="1920" version="1.1" enable-background="new" inkscape:version="0.91" sodipodi:docname="banner-new_de-oriii.svg">
<style>
.s0{
	font-family:'Swiss 721 Heavy';
	font-weight:500;
}
.s1{
	font-family:'Swiss 721 Light';
	font-weight:300;
}
.s2{
	fill:#009a93;
}

</style>  <metadata>
    <rdf:RDF>
      <cc:Work rdf:about="">
        <dc:format>
          image/svg+xml
        </dc:format>
        <dc:type rdf:resource="http://purl.org/dc/dcmitype/StillImage"/>
      </cc:Work>
    </rdf:RDF>
  </metadata>
  <sodipodi:namedview pagecolor="#ffffff" bordercolor="#666666" borderopacity="1" objecttolerance="10" gridtolerance="10" guidetolerance="10" inkscape:pageopacity="0" inkscape:pageshadow="2" inkscape:window-width="1920" inkscape:window-height="1029" showgrid="false" inkscape:zoom="0.59" inkscape:cx="236.07" inkscape:cy="435.64" inkscape:window-x="0" inkscape:window-y="27" inkscape:window-maximized="1" inkscape:current-layer="g4442"/>
  <defs>
    <clipPath clipPathUnits="userSpaceOnUse">
      <path d="m30.95 446.46h119.06v119.06h-119.06v-119.06z"/>
    </clipPath>
    <clipPath clipPathUnits="userSpaceOnUse">
      <path inkscape:connector-curvature="0" d="m30.95 446.46 119.06 0 0 119.06-119.06 0 0-119.06z"/>
    </clipPath>
  </defs>
  <g transform="translate(0 -852.36)">
    <path fill="#d9e5ec" d="m1696.2 970.44a196.07 196.07 0 0 1-196.07 196.07 196.07 196.07 0 0 1-196.07-196.07 196.07 196.07 0 0 1 196.07-196.07 196.07 196.07 0 0 1 196.07 196.07z"/>
    <g transform="matrix(1.7049 0 0 1.7049 -28.252 724.13)">
      <g transform="translate(-15.666 40.616)">
        <path d="m270.44 74.63c0 7.02 4.17 11.37 10.8 11.37s10.86-4.35 10.86-11.37-4.23-11.37-10.86-11.37-10.8 4.35-10.8 11.37zm5.61 0c0-4.44 1.89-6.81 5.19-6.81s5.22 2.37 5.22 6.81-1.89 6.81-5.22 6.81c-3.3 0-5.19-2.34-5.19-6.81zM306.43 77.63 306.43 77.63c0 2.64-1.17 4.17-3 4.17-1.95 0-3.12-1.47-3.12-4.17 0-2.91 1.05-4.41 3.03-4.41s3.09 1.53 3.09 4.41zm-11.25 14.16h5.19v-8.37c1.05 1.62 2.7 2.49 4.8 2.49 3.78 0 6.66-3.36 6.66-8.52 0-5.04-2.79-8.34-6.72-8.34-2.04 0-3.54 0.81-4.71 2.55v-2.13h-5.22v22.32zM324.53 80.39c-0.36 1.14-1.26 1.74-2.67 1.74-1.86 0-2.85-1.2-2.85-3.45h10.77c0.03-0.3 0.03-0.63 0.03-0.93 0-5.55-3.12-8.82-8.13-8.82-4.86 0-8.01 3.24-8.01 8.58 0 5.19 3.09 8.37 8.01 8.37 4.08 0 6.93-2.01 7.86-5.49h-5.01zm-5.67-4.65c0.21-2.13 1.29-3.27 2.97-3.27 1.8 0 2.94 1.2 2.97 3.27h-5.94zM332.5 85.4h5.19v-5.34c0-2.19 0.06-3.63 0.54-4.44 0.63-1.02 1.65-1.47 3.24-1.47 0.39 0 0.84 0.03 1.29 0.09v-5.16c-2.55 0.03-4.14 0.99-5.25 3.18v-2.79h-5.01v15.93zM359.95 85.4v-0.6c-0.54-0.27-0.78-1.11-0.78-2.52v-6.03c0-2.19-0.06-3.81-1.05-5.1-1.11-1.41-3.06-2.07-5.85-2.07-4.53 0-6.99 1.71-7.5 5.34h4.8c0.21-1.17 1.08-1.8 2.58-1.8 1.35 0 2.07 0.48 2.07 1.41v0.39c0 1.23-1.98 0.99-5.67 1.86-2.82 0.66-4.23 2.28-4.23 4.95 0 2.82 1.86 4.68 4.98 4.68 1.98 0 3.6-0.69 5.07-2.16 0.06 0.6 0.15 1.14 0.27 1.65h5.31zm-5.73-7.5v1.83c0 1.68-1.26 2.79-3.03 2.79-1.17 0-1.92-0.78-1.92-1.89 0-0.96 0.54-1.44 1.71-1.77s2.34-0.39 3.24-0.96zM361.06 72.62h2.13v6.18c0 4.95 0.57 6.96 4.71 6.96 1.02 0 2.07-0.12 3.12-0.33v-3.33c-0.24 0.03-0.48 0.03-0.66 0.03-1.65 0-1.95-0.69-1.95-2.61v-6.9h2.67v-3.15h-2.67v-4.5h-5.22v4.5h-2.13v3.15zM373.46 85.4h5.19v-15.93h-5.19v15.93zm0-17.37h5.19v-4.2h-5.19v4.2zM381.4 77.42c0 5.34 3.12 8.52 8.43 8.52s8.46-3.21 8.46-8.52-3.15-8.52-8.46-8.52c-5.28 0-8.43 3.18-8.43 8.52zm5.34 0c0-2.94 1.14-4.5 3.09-4.5s3.12 1.56 3.12 4.5-1.17 4.53-3.12 4.53-3.09-1.59-3.09-4.53zM401.05 85.4h5.19v-8.52c0-2.61 0.75-3.84 2.64-3.84 2.07 0 2.19 1.41 2.19 4.35v8.01h5.22v-10.35c0-4.08-1.44-5.97-5.31-5.97-2.19 0-3.75 0.84-4.83 2.58v-2.19h-5.1v15.93zM419.05 80.54c0.27 3.36 3.06 5.37 7.86 5.37 4.92 0 7.65-2.13 7.65-5.52 0-1.47-0.51-2.55-1.68-3.42-0.69-0.51-2.25-0.99-4.62-1.68-2.19-0.63-3.51-0.78-3.51-1.89 0-0.87 0.69-1.38 1.95-1.38 1.35 0 2.1 0.51 2.31 1.59h5.01c-0.3-3.12-2.82-4.71-7.44-4.71-4.38 0-6.93 2.01-6.93 5.19 0 2.55 1.62 3.66 5.19 4.83 2.85 0.93 4.59 0.87 4.59 2.16 0 0.96-0.9 1.56-2.37 1.56-1.74 0-2.67-0.69-2.79-2.1h-5.22zM446.56 85.4h5.49v-8.07h3.69c1.89 0 2.82 0.72 3 2.43 0.21 1.92-0.06 3.84 0.6 5.64h5.79v-0.75c-1.05-0.54-0.78-2.07-0.93-4.71-0.15-2.55-0.42-3.93-2.73-4.83 2.31-1.17 3.39-2.85 3.39-5.28 0-4.17-2.58-6-7.98-6h-10.32v21.57zm5.49-12.33v-4.92h4.26c2.07 0 3.09 0.75 3.09 2.34 0 1.8-1.02 2.58-3.24 2.58h-4.11zM478.28 80.39c-0.36 1.14-1.26 1.74-2.67 1.74-1.86 0-2.85-1.2-2.85-3.45h10.77c0.03-0.3 0.03-0.63 0.03-0.93 0-5.55-3.12-8.82-8.13-8.82-4.86 0-8.01 3.24-8.01 8.58 0 5.19 3.09 8.37 8.01 8.37 4.08 0 6.93-2.01 7.86-5.49h-5.01zm-5.67-4.65c0.21-2.13 1.29-3.27 2.97-3.27 1.8 0 2.94 1.2 2.97 3.27h-5.94zM485.5 80.54c0.27 3.36 3.06 5.37 7.86 5.37 4.92 0 7.65-2.13 7.65-5.52 0-1.47-0.51-2.55-1.68-3.42-0.69-0.51-2.25-0.99-4.62-1.68-2.19-0.63-3.51-0.78-3.51-1.89 0-0.87 0.69-1.38 1.95-1.38 1.35 0 2.1 0.51 2.31 1.59h5.01c-0.3-3.12-2.82-4.71-7.44-4.71-4.38 0-6.93 2.01-6.93 5.19 0 2.55 1.62 3.66 5.19 4.83 2.85 0.93 4.59 0.87 4.59 2.16 0 0.96-0.9 1.56-2.37 1.56-1.74 0-2.67-0.69-2.79-2.1h-5.22zM513.85 80.39c-0.36 1.14-1.26 1.74-2.67 1.74-1.86 0-2.85-1.2-2.85-3.45h10.77c0.03-0.3 0.03-0.63 0.03-0.93 0-5.55-3.12-8.82-8.13-8.82-4.86 0-8.01 3.24-8.01 8.58 0 5.19 3.09 8.37 8.01 8.37 4.08 0 6.93-2.01 7.86-5.49h-5.01zm-5.67-4.65c0.21-2.13 1.29-3.27 2.97-3.27 1.8 0 2.94 1.2 2.97 3.27h-5.94zM536.61 85.4v-0.6c-0.54-0.27-0.78-1.11-0.78-2.52v-6.03c0-2.19-0.06-3.81-1.05-5.1-1.11-1.41-3.06-2.07-5.85-2.07-4.53 0-6.99 1.71-7.5 5.34h4.8c0.21-1.17 1.08-1.8 2.58-1.8 1.35 0 2.07 0.48 2.07 1.41v0.39c0 1.23-1.98 0.99-5.67 1.86-2.82 0.66-4.23 2.28-4.23 4.95 0 2.82 1.86 4.68 4.98 4.68 1.98 0 3.6-0.69 5.07-2.16 0.06 0.6 0.15 1.14 0.27 1.65h5.31zm-5.73-7.5v1.83c0 1.68-1.26 2.79-3.03 2.79-1.17 0-1.92-0.78-1.92-1.89 0-0.96 0.54-1.44 1.71-1.77s2.34-0.39 3.24-0.96zM539.34 85.4h5.19v-5.34c0-2.19 0.06-3.63 0.54-4.44 0.63-1.02 1.65-1.47 3.24-1.47 0.39 0 0.84 0.03 1.29 0.09v-5.16c-2.55 0.03-4.14 0.99-5.25 3.18v-2.79h-5.01v15.93zM566.75 79.49h-5.13c-0.3 1.56-1.11 2.31-2.46 2.31-1.83 0-2.7-1.44-2.7-4.35 0-3 0.96-4.56 2.76-4.56 1.23 0 2.01 0.75 2.31 2.22h5.25c-0.33-3.87-3.15-6.21-7.53-6.21-4.98 0-8.16 3.27-8.16 8.7 0 4.98 3.12 8.31 7.89 8.31 4.38 0 7.26-2.37 7.77-6.42zM569.34 85.4h5.19v-8.52c0-2.61 0.75-3.84 2.64-3.84 2.07 0 2.19 1.41 2.19 4.35v8.01h5.22v-10.95c0-3.54-1.8-5.4-5.13-5.4-2.16 0-3.69 0.78-4.89 2.49v-7.71h-5.22v21.57zM273.89 122.97h1.98v-18.81l7.02 18.81h1.83l6.87-18.81v18.81h1.98v-21.57h-2.79l-6.99 18.99-7.11-18.99h-2.79v21.57zM299.04 114.06c0.18-3.42 2.16-5.46 4.95-5.46s4.65 2.01 4.8 5.46h-9.75zm0 1.47h11.61v-0.6c0-5.07-2.49-7.92-6.63-7.92-4.23 0-6.84 3-6.84 8.25 0 5.16 2.58 8.13 6.78 8.13 3.57 0 6.09-2.07 6.48-5.22h-1.8c-0.36 2.28-2.13 3.63-4.56 3.63-3 0-5.04-2.28-5.04-6.18v-0.09zM316.21 102.93h-1.8v4.47h-2.13v1.47h2.13v11.34c0 2.13 0.45 3.15 2.46 3.15 0.69 0 1.41-0.12 2.22-0.33v-1.44c-0.69 0.15-1.26 0.3-1.74 0.3-0.99 0-1.14-0.54-1.14-1.68v-11.34h2.88v-1.47h-2.88v-4.47zM321.98 122.97h1.8v-9.18c0-3.21 1.95-5.19 4.8-5.19 3.27 0 3.84 1.59 3.84 4.92v9.45h1.8v-9.48c0-1.89 0-3.27-0.63-4.29-0.84-1.35-2.55-2.19-4.65-2.19-2.25 0-3.99 0.96-5.16 2.82v-8.43h-1.8v21.57zM337.43 115.2c0 5.22 2.61 8.16 7.14 8.16s7.17-2.94 7.17-8.16-2.64-8.19-7.17-8.19-7.14 2.97-7.14 8.19zm1.86 0c0-4.26 1.98-6.6 5.28-6.6 3.33 0 5.31 2.34 5.31 6.6s-1.98 6.57-5.31 6.57c-3.3 0-5.28-2.31-5.28-6.57zM368.32 101.4h-1.8v8.7c-1.11-2.04-2.91-3.09-5.37-3.09-4.17 0-6.93 3.03-6.93 8.19s2.7 8.19 6.81 8.19c2.43 0 4.29-1.02 5.49-3.06v2.64h1.8v-21.57zm-12.24 13.8c0-4.26 1.95-6.6 5.31-6.6 3.33 0 5.28 2.34 5.28 6.6 0 4.29-1.92 6.6-5.28 6.6-3.3 0-5.31-2.4-5.31-6.6zM373.45 114.06c0.18-3.42 2.16-5.46 4.95-5.46s4.65 2.01 4.8 5.46h-9.75zm0 1.47h11.61v-0.6c0-5.07-2.49-7.92-6.63-7.92-4.23 0-6.84 3-6.84 8.25 0 5.16 2.58 8.13 6.78 8.13 3.57 0 6.09-2.07 6.48-5.22h-1.8c-0.36 2.28-2.13 3.63-4.56 3.63-3 0-5.04-2.28-5.04-6.18v-0.09zM388.25 122.97h1.8v-9.18c0-3.24 1.89-5.19 4.74-5.19 3.18 0 3.87 1.5 3.87 4.65v9.72h1.8v-9.93c0-1.65 0-2.88-0.63-3.84-0.84-1.38-2.52-2.19-4.68-2.19-2.28 0-3.99 0.96-5.16 2.88v-2.49h-1.74v15.57zM404.42 122.97h1.8v-2.7c1.08 2.04 2.94 3.12 5.34 3.12 4.26 0 7.02-3.03 7.02-8.19s-2.7-8.19-6.9-8.19c-2.49 0-4.29 1.05-5.46 3.15v-8.76h-1.8v21.57zm1.71-7.77c0-4.29 1.95-6.6 5.28-6.6 3.3 0 5.31 2.34 5.31 6.6s-1.95 6.6-5.31 6.6c-3.3 0-5.28-2.43-5.28-6.6zM431.85 120.72v0.24c0 1.44 0.75 2.16 2.22 2.16 0.27 0 0.72-0.03 1.29-0.15v-1.35c-0.3 0.03-0.54 0.03-0.66 0.03-1.08 0-1.11-0.42-1.11-1.44v-8.49c0-3.09-1.98-4.71-5.7-4.71-3.81 0-6.12 1.98-6.18 5.04h1.77c0.12-2.28 1.62-3.45 4.41-3.45 2.85 0 3.87 1.05 3.87 3.39 0 1.59-0.54 1.56-2.73 2.01-2.07 0.18-3.96 0.21-5.61 0.96-1.62 0.75-2.49 2.1-2.49 3.9 0 2.7 1.98 4.5 5.16 4.5 2.19 0 4.11-0.87 5.76-2.64zm-0.1-5.94v2.19c0 3-2.25 4.8-5.49 4.8-2.16 0-3.51-1.17-3.51-2.94 0-1.59 1.2-2.7 3.48-3.3 2.28-0.12 4.17-0.24 5.49-0.75zM437.76 122.97h1.8v-9.18c0-3.24 1.89-5.19 4.74-5.19 3.18 0 3.87 1.5 3.87 4.65v9.72h1.8v-9.93c0-1.65 0-2.88-0.63-3.84-0.84-1.38-2.52-2.19-4.68-2.19-2.28 0-3.99 0.96-5.16 2.88v-2.49h-1.74v15.57zM453.94 122.97h1.8v-5.85l2.94-2.82 5.79 8.67h2.07l-6.6-9.87 5.88-5.7h-2.31l-7.77 7.56v-13.56h-1.8v21.57z"/>
      </g>
      <path d="m458.58 150.62 1.9 0 0-3.11 2.59 0 0 3.11 1.9 0 0-7.38-1.9 0 0 2.62-2.59 0 0-2.62-1.9 0 0 7.38zM466.01 147.89 466.01 147.89c0 1.83 1.07 2.92 2.88 2.92 1.82 0 2.89-1.1 2.89-2.92 0-1.82-1.08-2.92-2.89-2.92-1.81 0-2.88 1.09-2.88 2.92zm1.83 0c0-1.01 0.39-1.54 1.06-1.54 0.67 0 1.07 0.53 1.07 1.54 0 1.01-0.4 1.55-1.07 1.55-0.67 0-1.06-0.54-1.06-1.55zM477.78 148.6l-1.76 0c-0.1 0.53-0.38 0.79-0.84 0.79-0.63 0-0.92-0.49-0.92-1.49 0-1.03 0.33-1.56 0.94-1.56 0.42 0 0.69 0.26 0.79 0.76l1.8 0c-0.11-1.32-1.08-2.12-2.58-2.12-1.7 0-2.79 1.12-2.79 2.98 0 1.7 1.07 2.84 2.7 2.84 1.5 0 2.48-0.81 2.66-2.2zM478.67 150.62l1.78 0 0-2.92c0-0.89 0.26-1.31 0.9-1.31 0.71 0 0.75 0.48 0.75 1.49l0 2.74 1.79 0 0-3.75c0-1.21-0.62-1.85-1.76-1.85-0.74 0-1.26 0.27-1.67 0.85l0-2.64-1.79 0 0 7.38zM484.83 148.95c0.09 1.15 1.05 1.84 2.69 1.84 1.68 0 2.62-0.73 2.62-1.89 0-0.5-0.17-0.87-0.57-1.17-0.24-0.17-0.77-0.34-1.58-0.57-0.75-0.22-1.2-0.27-1.2-0.65 0-0.3 0.24-0.47 0.67-0.47 0.46 0 0.72 0.17 0.79 0.54l1.71 0c-0.1-1.07-0.96-1.61-2.55-1.61-1.5 0-2.37 0.69-2.37 1.78 0 0.87 0.55 1.25 1.78 1.65 0.98 0.32 1.57 0.3 1.57 0.74 0 0.33-0.31 0.53-0.81 0.53-0.6 0-0.91-0.24-0.95-0.72l-1.79 0zM496.17 148.6l-1.76 0c-0.1 0.53-0.38 0.79-0.84 0.79-0.63 0-0.92-0.49-0.92-1.49 0-1.03 0.33-1.56 0.94-1.56 0.42 0 0.69 0.26 0.79 0.76l1.8 0c-0.11-1.32-1.08-2.12-2.58-2.12-1.7 0-2.79 1.12-2.79 2.98 0 1.7 1.07 2.84 2.7 2.84 1.5 0 2.48-0.81 2.66-2.2zM497.05 150.62l1.78 0 0-2.92c0-0.89 0.26-1.31 0.9-1.31 0.71 0 0.75 0.48 0.75 1.49l0 2.74 1.79 0 0-3.75c0-1.21-0.62-1.85-1.76-1.85-0.74 0-1.26 0.27-1.67 0.85l0-2.64-1.79 0 0 7.38zM508.64 145.17l-1.79 0 0 2.92c0 0.89-0.25 1.31-0.89 1.31-0.61 0-0.75-0.37-0.75-1.18l0-3.05-1.79 0 0 3.75c0 1.22 0.62 1.84 1.82 1.84 0.7 0 1.22-0.28 1.65-0.88l0 0.75 1.75 0 0-5.45zM509.87 150.62l1.79 0 0-7.38-1.79 0 0 7.38zM516.32 148.9c-0.12 0.39-0.43 0.6-0.91 0.6-0.64 0-0.98-0.41-0.98-1.18l3.69 0c0.01-0.1 0.01-0.22 0.01-0.32 0-1.9-1.07-3.02-2.78-3.02-1.66 0-2.74 1.11-2.74 2.94 0 1.78 1.06 2.86 2.74 2.86 1.4 0 2.37-0.69 2.69-1.88l-1.71 0zm-1.94-1.59c0.07-0.73 0.44-1.12 1.02-1.12 0.62 0 1.01 0.41 1.02 1.12l-2.03 0zM522.18 150.62l1.86 0 0-2.32 0.64-0.64 2.07 2.96 2.26 0-3.06-4.28 2.99-3.1-2.27 0-2.63 2.81 0-2.81-1.86 0 0 7.38zM529.06 147.89c0 1.83 1.07 2.92 2.88 2.92 1.82 0 2.89-1.1 2.89-2.92 0-1.82-1.08-2.92-2.89-2.92-1.81 0-2.88 1.09-2.88 2.92zm1.83 0c0-1.01 0.39-1.54 1.06-1.54 0.67 0 1.07 0.53 1.07 1.54 0 1.01-0.4 1.55-1.07 1.55-0.67 0-1.06-0.54-1.06-1.55zM535.79 150.62l1.78 0 0-2.92c0-0.89 0.26-1.31 0.9-1.31 0.71 0 0.75 0.48 0.75 1.49l0 2.74 1.79 0 0-3.54c0-1.4-0.49-2.04-1.82-2.04-0.75 0-1.28 0.29-1.65 0.88l0-0.75-1.75 0 0 5.45zM541.95 148.95c0.09 1.15 1.05 1.84 2.69 1.84 1.68 0 2.62-0.73 2.62-1.89 0-0.5-0.17-0.87-0.57-1.17-0.24-0.17-0.77-0.34-1.58-0.57-0.75-0.22-1.2-0.27-1.2-0.65 0-0.3 0.24-0.47 0.67-0.47 0.46 0 0.72 0.17 0.79 0.54l1.71 0c-0.1-1.07-0.96-1.61-2.55-1.61-1.5 0-2.37 0.69-2.37 1.78 0 0.87 0.55 1.25 1.78 1.65 0.98 0.32 1.57 0.3 1.57 0.74 0 0.33-0.31 0.53-0.81 0.53-0.6 0-0.91-0.24-0.95-0.72l-1.79 0zM547.68 146.24l0.73 0 0 2.11c0 1.69 0.2 2.38 1.61 2.38 0.35 0 0.71-0.04 1.07-0.11l0-1.14c-0.08 0.01-0.16 0.01-0.23 0.01-0.56 0-0.67-0.24-0.67-0.89l0-2.36 0.91 0 0-1.08-0.91 0 0-1.54-1.79 0 0 1.54-0.73 0 0 1.08zM556.99 150.62l0-0.21c-0.18-0.09-0.27-0.38-0.27-0.86l0-2.06c0-0.75-0.02-1.3-0.36-1.75-0.38-0.48-1.05-0.71-2-0.71-1.55 0-2.39 0.59-2.57 1.83l1.64 0c0.07-0.4 0.37-0.62 0.88-0.62 0.46 0 0.71 0.16 0.71 0.48l0 0.13c0 0.42-0.68 0.34-1.94 0.64-0.96 0.23-1.45 0.78-1.45 1.69 0 0.96 0.64 1.6 1.7 1.6 0.68 0 1.23-0.24 1.73-0.74 0.02 0.21 0.05 0.39 0.09 0.56l1.82 0zm-1.96-2.57 0 0.63c0 0.57-0.43 0.95-1.04 0.95-0.4 0-0.66-0.27-0.66-0.65 0-0.33 0.18-0.49 0.59-0.61 0.4-0.11 0.8-0.13 1.11-0.33zM557.92 150.62l1.78 0 0-2.92c0-0.89 0.26-1.31 0.9-1.31 0.71 0 0.75 0.48 0.75 1.49l0 2.74 1.79 0 0-3.54c0-1.4-0.49-2.04-1.82-2.04-0.75 0-1.28 0.29-1.65 0.88l0-0.75-1.75 0 0 5.45zM563.91 150.62l5.03 0 0-1.31-2.78 0 2.69-2.85 0-1.28-4.76 0 0 1.28 2.54 0-2.71 2.85 0 1.31z" class="s0"/>
      <path d="m460.25 163.47 0.68 0 0-6.77 2.3 0 0-0.61-5.28 0 0 0.61 2.3 0 0 6.77zM462.98 160.42 462.98 160.42c0.06-1.17 0.74-1.87 1.69-1.87 0.95 0 1.59 0.69 1.64 1.87l-3.34 0zm0 0.5 3.97 0 0-0.21c0-1.73-0.85-2.71-2.27-2.71-1.45 0-2.34 1.03-2.34 2.82 0 1.77 0.88 2.78 2.32 2.78 1.22 0 2.08-0.71 2.22-1.79l-0.62 0c-0.12 0.78-0.73 1.24-1.56 1.24-1.03 0-1.72-0.78-1.72-2.11l0-0.03zM471.71 161.63c-0.13 0.9-0.73 1.43-1.55 1.43-1.04 0-1.75-0.82-1.75-2.27 0-1.43 0.71-2.24 1.73-2.24 0.8 0 1.41 0.5 1.51 1.28l0.6 0c-0.06-1.09-0.9-1.83-2.1-1.83-1.45 0-2.37 1.05-2.37 2.83 0 1.73 0.91 2.76 2.33 2.76 1.26 0 2.1-0.75 2.22-1.97l-0.62 0zM473.34 163.47l0.62 0 0-3.14c0-1.1 0.67-1.78 1.64-1.78 1.12 0 1.31 0.54 1.31 1.68l0 3.23 0.62 0 0-3.24c0-0.65 0-1.12-0.22-1.47-0.29-0.46-0.87-0.75-1.59-0.75-0.77 0-1.37 0.33-1.77 0.96l0-2.88-0.62 0 0 7.38zM478.89 163.47l0.62 0 0-3.14c0-1.11 0.65-1.78 1.62-1.78 1.09 0 1.32 0.51 1.32 1.59l0 3.33 0.62 0 0-3.4c0-0.56-0.01-0.99-0.22-1.31-0.29-0.47-0.86-0.75-1.6-0.75-0.78 0-1.37 0.33-1.77 0.99l0-0.85-0.6 0 0 5.33zM484.49 163.47l0.62 0 0-5.33-0.62 0 0 5.33zm0-6.46 0.62 0 0-0.92-0.62 0 0 0.92zM486.53 163.47l0.62 0 0-2 1.01-0.96 1.98 2.97 0.71 0-2.26-3.38 2.01-1.95-0.79 0-2.66 2.59 0-4.64-0.62 0 0 7.38zM491.84 164.9c0.5-0.21 0.68-0.52 0.68-1.11l0-1.23-0.68 0 0 0.91 0.32 0 0 0.36c0 0.32-0.08 0.51-0.32 0.68l0 0.39zM498.24 163.47l0.73 0 1.7-6.56 1.67 6.56 0.74 0 1.94-7.38-0.65 0-1.66 6.36-1.61-6.36-0.83 0-1.63 6.36-1.64-6.36-0.67 0 1.91 7.38zM506.04 163.47l0.62 0 0-5.33-0.62 0 0 5.33zm0-6.46 0.62 0 0-0.92-0.62 0 0 0.92zM508.08 163.47l0.62 0 0-2.96c0-1.23 0.55-1.87 1.61-1.87l0.08 0 0-0.64-0.07 0c-0.77 0-1.32 0.33-1.64 1.07l0-0.93-0.6 0 0 5.33zM512.04 156.61l-0.62 0 0 1.53-0.73 0 0 0.5 0.73 0 0 3.88c0 0.73 0.15 1.08 0.84 1.08 0.24 0 0.48-0.04 0.76-0.11l0-0.49c-0.24 0.05-0.43 0.1-0.6 0.1-0.34 0-0.39-0.18-0.39-0.57l0-3.88 0.99 0 0-0.5-0.99 0 0-1.53zM513.79 161.81c0.03 1.1 0.83 1.81 2.07 1.81 1.25 0 2.03-0.65 2.03-1.53 0-0.86-0.49-1.22-1.62-1.5-1.11-0.27-1.73-0.34-1.73-1.12 0-0.53 0.44-0.91 1.19-0.91 0.84 0 1.34 0.43 1.39 1.15l0.64 0c-0.07-1.06-0.81-1.69-2.01-1.69-1.1 0-1.84 0.64-1.84 1.54 0 0.92 0.65 1.22 1.92 1.53 0.94 0.23 1.44 0.34 1.44 1 0 0.59-0.51 1-1.43 1-0.82 0-1.4-0.52-1.41-1.26l-0.64 0zM522.71 161.63c-0.13 0.9-0.73 1.43-1.55 1.43-1.04 0-1.75-0.82-1.75-2.27 0-1.43 0.71-2.24 1.73-2.24 0.8 0 1.41 0.5 1.51 1.28l0.6 0c-0.06-1.09-0.9-1.83-2.1-1.83-1.45 0-2.37 1.05-2.37 2.83 0 1.73 0.91 2.76 2.33 2.76 1.26 0 2.1-0.75 2.22-1.97l-0.62 0zM524.34 163.47l0.62 0 0-3.14c0-1.1 0.67-1.78 1.64-1.78 1.12 0 1.31 0.54 1.31 1.68l0 3.23 0.62 0 0-3.24c0-0.65 0-1.12-0.22-1.47-0.29-0.46-0.87-0.75-1.59-0.75-0.77 0-1.37 0.33-1.77 0.96l0-2.88-0.62 0 0 7.38zM533.36 162.7l0 0.08c0 0.49 0.26 0.74 0.76 0.74 0.09 0 0.25-0.01 0.44-0.05l0-0.46c-0.1 0.01-0.18 0.01-0.23 0.01-0.37 0-0.38-0.14-0.38-0.49l0-2.9c0-1.06-0.68-1.61-1.95-1.61-1.3 0-2.09 0.68-2.11 1.72l0.61 0c0.04-0.78 0.55-1.18 1.51-1.18 0.98 0 1.32 0.36 1.32 1.16 0 0.54-0.18 0.53-0.93 0.69-0.71 0.06-1.35 0.07-1.92 0.33-0.55 0.26-0.85 0.72-0.85 1.33 0 0.92 0.68 1.54 1.77 1.54 0.75 0 1.41-0.3 1.97-0.9zm-0.03-2.03 0.01 0.75c0 1.03-0.77 1.64-1.88 1.64-0.74 0-1.2-0.4-1.2-1.01 0-0.54 0.41-0.92 1.19-1.13 0.78-0.04 1.43-0.08 1.88-0.26zM535.69 163.47l0.62 0 0-4.82 0.96 0 0-0.5-0.96 0 0-0.91c0-0.47 0.15-0.67 0.63-0.67 0.09 0 0.21 0.03 0.34 0.04l0-0.55c-0.11-0.02-0.22-0.03-0.32-0.03-0.86 0-1.26 0.34-1.26 1.15l0 0.98-0.78 0 0 0.5 0.78 0 0 4.82zM538.93 156.61l-0.62 0 0 1.53-0.73 0 0 0.5 0.73 0 0 3.88c0 0.73 0.15 1.08 0.84 1.08 0.24 0 0.48-0.04 0.76-0.11l0-0.49c-0.24 0.05-0.43 0.1-0.6 0.1-0.34 0-0.39-0.18-0.39-0.57l0-3.88 0.99 0 0-0.5-0.99 0 0-1.53zM547.8 158.14l-0.62 0 0 3.15c0 1.1-0.64 1.78-1.65 1.78-0.98 0-1.3-0.47-1.3-1.49l0-3.44-0.62 0 0 3.58c0 1.25 0.6 1.89 1.81 1.89 0.8 0 1.38-0.32 1.79-1l0 0.85 0.6 0 0-5.33zM549.18 163.47l0.62 0 0-3.14c0-1.11 0.65-1.78 1.62-1.78 1.09 0 1.32 0.51 1.32 1.59l0 3.33 0.62 0 0-3.4c0-0.56-0.01-0.99-0.22-1.31-0.29-0.47-0.86-0.75-1.6-0.75-0.78 0-1.37 0.33-1.77 0.99l0-0.85-0.6 0 0 5.33zM559.28 156.09l-0.62 0 0 2.98c-0.38-0.7-1-1.06-1.84-1.06-1.43 0-2.37 1.04-2.37 2.8 0 1.77 0.92 2.8 2.33 2.8 0.83 0 1.47-0.35 1.88-1.05l0 0.9 0.62 0 0-7.38zm-4.19 4.72c0-1.46 0.67-2.26 1.82-2.26 1.14 0 1.81 0.8 1.81 2.26 0 1.47-0.66 2.26-1.81 2.26-1.13 0-1.82-0.82-1.82-2.26zM569.18 163.47l0.54 0 0-3.79-3.08 0 0 0.61 2.43 0 0 0.03c0 1.73-0.95 2.75-2.58 2.75-1.57 0-2.58-1.26-2.58-3.32 0-2.11 0.98-3.25 2.66-3.25 1.26 0 2.15 0.66 2.35 1.73l0.7 0c-0.22-1.47-1.32-2.34-3.06-2.34-2.02 0-3.35 1.43-3.35 3.87 0 2.44 1.27 3.91 3.31 3.91 1.18 0 2.12-0.56 2.58-1.51l0.07 1.3zM571.44 160.42c0.06-1.17 0.74-1.87 1.69-1.87 0.95 0 1.59 0.69 1.64 1.87l-3.34 0zm0 0.5 3.97 0 0-0.21c0-1.73-0.85-2.71-2.27-2.71-1.45 0-2.34 1.03-2.34 2.82 0 1.77 0.88 2.78 2.32 2.78 1.22 0 2.08-0.71 2.22-1.79l-0.62 0c-0.12 0.78-0.73 1.24-1.56 1.24-1.03 0-1.72-0.78-1.72-2.11l0-0.03zM576.28 161.81c0.03 1.1 0.83 1.81 2.07 1.81 1.25 0 2.03-0.65 2.03-1.53 0-0.86-0.49-1.22-1.62-1.5-1.11-0.27-1.73-0.34-1.73-1.12 0-0.53 0.44-0.91 1.19-0.91 0.84 0 1.34 0.43 1.39 1.15l0.64 0c-0.07-1.06-0.81-1.69-2.01-1.69-1.1 0-1.84 0.64-1.84 1.54 0 0.92 0.65 1.22 1.92 1.53 0.94 0.23 1.44 0.34 1.44 1 0 0.59-0.51 1-1.43 1-0.82 0-1.4-0.52-1.41-1.26l-0.64 0zM582.35 156.61l-0.62 0 0 1.53-0.73 0 0 0.5 0.73 0 0 3.88c0 0.73 0.15 1.08 0.84 1.08 0.24 0 0.48-0.04 0.76-0.11l0-0.49c-0.24 0.05-0.43 0.1-0.6 0.1-0.34 0-0.39-0.18-0.39-0.57l0-3.88 0.99 0 0-0.5-0.99 0 0-1.53zM587.8 162.7l0 0.08c0 0.49 0.26 0.74 0.76 0.74 0.09 0 0.25-0.01 0.44-0.05l0-0.46c-0.1 0.01-0.18 0.01-0.23 0.01-0.37 0-0.38-0.14-0.38-0.49l0-2.9c0-1.06-0.68-1.61-1.95-1.61-1.3 0-2.09 0.68-2.11 1.72l0.61 0c0.04-0.78 0.55-1.18 1.51-1.18 0.98 0 1.32 0.36 1.32 1.16 0 0.54-0.18 0.53-0.93 0.69-0.71 0.06-1.35 0.07-1.92 0.33-0.55 0.26-0.85 0.72-0.85 1.33 0 0.92 0.68 1.54 1.77 1.54 0.75 0 1.41-0.3 1.97-0.9zm-0.03-2.03 0.01 0.75c0 1.03-0.77 1.64-1.88 1.64-0.74 0-1.2-0.4-1.2-1.01 0-0.54 0.41-0.92 1.19-1.13 0.78-0.04 1.43-0.08 1.88-0.26zM589.88 163.47l0.62 0 0-7.38-0.62 0 0 7.38zM592.74 156.61l-0.62 0 0 1.53-0.73 0 0 0.5 0.73 0 0 3.88c0 0.73 0.15 1.08 0.84 1.08 0.24 0 0.48-0.04 0.76-0.11l0-0.49c-0.24 0.05-0.43 0.1-0.6 0.1-0.34 0-0.39-0.18-0.39-0.57l0-3.88 0.99 0 0-0.5-0.99 0 0-1.53zM598.88 158.14l-0.62 0 0 3.15c0 1.1-0.64 1.78-1.65 1.78-0.98 0-1.3-0.47-1.3-1.49l0-3.44-0.62 0 0 3.58c0 1.25 0.6 1.89 1.81 1.89 0.8 0 1.38-0.32 1.79-1l0 0.85 0.6 0 0-5.33zM600.27 163.47l0.62 0 0-3.14c0-1.11 0.65-1.78 1.62-1.78 1.09 0 1.32 0.51 1.32 1.59l0 3.33 0.62 0 0-3.4c0-0.56-0.01-0.99-0.22-1.31-0.29-0.47-0.86-0.75-1.6-0.75-0.78 0-1.37 0.33-1.77 0.99l0-0.85-0.6 0 0 5.33zM610.37 158.14l-0.62 0 0 0.92c-0.41-0.71-1.03-1.06-1.85-1.06-1.42 0-2.36 1.05-2.36 2.8 0 1.77 0.92 2.8 2.36 2.8 0.81 0 1.43-0.35 1.85-1.06l0 0.66c0 1.25-0.64 1.9-1.92 1.9-0.9 0-1.43-0.38-1.49-1.02l-0.64 0c0.07 0.94 0.87 1.56 2.14 1.56 1.66 0 2.53-0.83 2.53-2.46l0-5.05zm-4.19 2.67c0-1.47 0.68-2.26 1.82-2.26 1.13 0 1.81 0.8 1.81 2.26 0 1.46-0.69 2.26-1.81 2.26-1.1 0-1.82-0.82-1.82-2.26z" class="s1"/>
    </g>
    <g transform="matrix(.86326 -2.1659 2.1659 .86326 1947.2 -1587.1)" onclick="">
      <g transform="matrix(1.25 0 0 -1.25 -1047.6 312.3)" shape-rendering="crispEdges">
        <path fill="none" stroke="#009a93" stroke-width="60" stroke-linecap="round" stroke-linejoin="round" d="m0 0 181.37-59.53"/>
      </g>
    </g>
    <g fill="#000134">
      <path d="m210.51 917.68c0.49 0 0.89-0.4 0.89-0.89 0-0.49-0.4-0.88-0.89-0.88-0.49 0-0.89 0.4-0.89 0.88 0 0.49 0.4 0.89 0.89 0.89M210.51 992.09 210.51 992.09c0.49 0 0.89-0.4 0.89-0.89 0-0.49-0.4-0.88-0.89-0.88-0.49 0-0.89 0.4-0.89 0.89 0 0.49 0.4 0.89 0.89 0.89M284.94 918.75c0.49 0 0.89-0.4 0.89-0.89 0-0.49-0.4-0.88-0.89-0.88-0.49 0-0.89 0.4-0.89 0.88 0 0.49 0.4 0.89 0.89 0.89M287.04 993.16c1.65 0 2.99-1.34 2.99-2.99 0-1.65-1.34-2.98-2.99-2.98-1.65 0-2.99 1.34-2.99 2.98 0 1.65 1.34 2.99 2.99 2.99M359.37 918.73c0.49 0 0.89-0.4 0.89-0.89 0-0.49-0.4-0.88-0.89-0.88-0.49 0-0.89 0.4-0.89 0.88 0 0.49 0.4 0.89 0.89 0.89M359.37 993.16c0.49 0 0.89-0.4 0.89-0.89 0-0.49-0.4-0.88-0.89-0.88-0.49 0-0.89 0.4-0.89 0.89 0 0.49 0.4 0.89 0.89 0.89"/>
      <g transform="translate(766.39 .72793)">
        <path d="m210.51 917.68c0.49 0 0.89-0.4 0.89-0.89 0-0.49-0.4-0.88-0.89-0.88-0.49 0-0.89 0.4-0.89 0.88 0 0.49 0.4 0.89 0.89 0.89M210.51 992.09 210.51 992.09c0.49 0 0.89-0.4 0.89-0.89 0-0.49-0.4-0.88-0.89-0.88-0.49 0-0.89 0.4-0.89 0.89 0 0.49 0.4 0.89 0.89 0.89M284.94 918.75c0.49 0 0.89-0.4 0.89-0.89 0-0.49-0.4-0.88-0.89-0.88-0.49 0-0.89 0.4-0.89 0.88 0 0.49 0.4 0.89 0.89 0.89M284.94 993.16c0.49 0 0.89-0.4 0.89-0.89 0-0.49-0.4-0.88-0.89-0.88-0.49 0-0.89 0.4-0.89 0.89 0 0.49 0.4 0.89 0.89 0.89M359.37 918.73c0.49 0 0.89-0.4 0.89-0.89 0-0.49-0.4-0.88-0.89-0.88-0.49 0-0.89 0.4-0.89 0.88 0 0.49 0.4 0.89 0.89 0.89M359.37 993.16c0.49 0 0.89-0.4 0.89-0.89 0-0.49-0.4-0.88-0.89-0.88-0.49 0-0.89 0.4-0.89 0.89 0 0.49 0.4 0.89 0.89 0.89"/>
      </g>
      <g transform="translate(915.23 1.7958)">
        <path d="m210.51 917.68c0.49 0 0.89-0.4 0.89-0.89 0-0.49-0.4-0.88-0.89-0.88-0.49 0-0.89 0.4-0.89 0.88 0 0.49 0.4 0.89 0.89 0.89M210.51 992.09 210.51 992.09c0.49 0 0.89-0.4 0.89-0.89 0-0.49-0.4-0.88-0.89-0.88-0.49 0-0.89 0.4-0.89 0.89 0 0.49 0.4 0.89 0.89 0.89M284.94 920.11c1.24 0 2.25-1.01 2.25-2.25 0-1.24-1.01-2.25-2.25-2.25s-2.25 1.01-2.25 2.25c0 1.24 1.01 2.25 2.25 2.25M284.94 993.16c0.49 0 0.89-0.4 0.89-0.89 0-0.49-0.4-0.88-0.89-0.88-0.49 0-0.89 0.4-0.89 0.89 0 0.49 0.4 0.89 0.89 0.89M359.37 918.73c0.49 0 0.89-0.4 0.89-0.89 0-0.49-0.4-0.88-0.89-0.88-0.49 0-0.89 0.4-0.89 0.88 0 0.49 0.4 0.89 0.89 0.89M359.37 993.16c0.49 0 0.89-0.4 0.89-0.89 0-0.49-0.4-0.88-0.89-0.88-0.49 0-0.89 0.4-0.89 0.89 0 0.49 0.4 0.89 0.89 0.89"/>
      </g>
      <g transform="translate(1063.9 3.1277)">
        <path d="m210.51 917.68c0.49 0 0.89-0.4 0.89-0.89 0-0.49-0.4-0.88-0.89-0.88-0.49 0-0.89 0.4-0.89 0.88 0 0.49 0.4 0.89 0.89 0.89M210.51 992.09 210.51 992.09c0.49 0 0.89-0.4 0.89-0.89 0-0.49-0.4-0.88-0.89-0.88-0.49 0-0.89 0.4-0.89 0.89 0 0.49 0.4 0.89 0.89 0.89M284.94 918.75c0.49 0 0.89-0.4 0.89-0.89 0-0.49-0.4-0.88-0.89-0.88-0.49 0-0.89 0.4-0.89 0.88 0 0.49 0.4 0.89 0.89 0.89M284.94 993.16c0.49 0 0.89-0.4 0.89-0.89 0-0.49-0.4-0.88-0.89-0.88-0.49 0-0.89 0.4-0.89 0.89 0 0.49 0.4 0.89 0.89 0.89M359.37 918.73c0.49 0 0.89-0.4 0.89-0.89 0-0.49-0.4-0.88-0.89-0.88-0.49 0-0.89 0.4-0.89 0.88 0 0.49 0.4 0.89 0.89 0.89M359.37 993.16c0.49 0 0.89-0.4 0.89-0.89 0-0.49-0.4-0.88-0.89-0.88-0.49 0-0.89 0.4-0.89 0.89 0 0.49 0.4 0.89 0.89 0.89"/>
      </g>
      <g transform="translate(1212.7 4.1615)">
        <path d="m210.51 917.68c0.49 0 0.89-0.4 0.89-0.89 0-0.49-0.4-0.88-0.89-0.88-0.49 0-0.89 0.4-0.89 0.88 0 0.49 0.4 0.89 0.89 0.89M210.51 992.09 210.51 992.09c0.49 0 0.89-0.4 0.89-0.89 0-0.49-0.4-0.88-0.89-0.88-0.49 0-0.89 0.4-0.89 0.89 0 0.49 0.4 0.89 0.89 0.89M284.94 918.75c0.49 0 0.89-0.4 0.89-0.89 0-0.49-0.4-0.88-0.89-0.88-0.49 0-0.89 0.4-0.89 0.88 0 0.49 0.4 0.89 0.89 0.89M284.94 993.16c0.49 0 0.89-0.4 0.89-0.89 0-0.49-0.4-0.88-0.89-0.88-0.49 0-0.89 0.4-0.89 0.89 0 0.49 0.4 0.89 0.89 0.89M359.37 918.73c0.49 0 0.89-0.4 0.89-0.89 0-0.49-0.4-0.88-0.89-0.88-0.49 0-0.89 0.4-0.89 0.88 0 0.49 0.4 0.89 0.89 0.89M359.37 993.16c0.49 0 0.89-0.4 0.89-0.89 0-0.49-0.4-0.88-0.89-0.88-0.49 0-0.89 0.4-0.89 0.89 0 0.49 0.4 0.89 0.89 0.89"/>
      </g>
    </g>
    <g transform="matrix(.56516 0 0 .56516 498.72 393.36)">
      <path d="m1185.7 930.6c0 37.43 22.23 60.62 57.58 60.62s57.9-23.19 57.9-60.62-22.55-60.62-57.9-60.62c-35.35 0-57.58 23.19-57.58 60.62zm29.91 0c0-23.67 10.08-36.31 27.67-36.31s27.83 12.64 27.83 36.31-10.08 36.31-27.83 36.31c-17.59 0-27.67-12.47-27.67-36.31z"/>
    </g>
    <g transform="matrix(1.25 0 0 -1.25 1460.6 971.68)">
      <path d="m0 0c-0.59 1.67-1.57 3.17-2.92 4.49-1.35 1.32-3.17 2.39-5.45 3.21-2.28 0.82-5.08 1.22-8.41 1.22h-12.4c-0.71 0-1.4-0.13-2.07-0.4-0.67-0.26-1.25-0.61-1.75-1.02-0.5-0.42-0.89-0.91-1.18-1.49s-0.43-1.19-0.43-1.85v-38.07c0-1.19 0.49-2.21 1.46-3.07 0.97-0.86 2.13-1.29 3.46-1.29 0.67 0 1.31 0.12 1.93 0.36 0.62 0.24 1.15 0.56 1.6 0.96s0.82 0.86 1.11 1.39 0.43 1.08 0.43 1.65v15.14h4.85l11.98-17.38c0.95-1.37 2.35-2.05 4.21-2.05 0.81 0 1.59 0.2 2.35 0.6 0.76 0.4 1.39 0.91 1.89 1.55 0.5 0.64 0.78 1.37 0.86 2.18 0.07 0.82-0.18 1.64-0.75 2.48l-9.76 13.62c3.09 0.93 5.51 2.44 7.27 4.56 1.76 2.12 2.64 4.83 2.64 8.13 0 1.72-0.3 3.41-0.89 5.09m-11.01-9.05c-1.28-0.92-3.16-1.39-5.63-1.39h-7.98v10.97h7.56c1.62 0 2.95-0.16 3.99-0.5 1.04-0.33 1.86-0.76 2.46-1.29 0.59-0.53 1-1.12 1.21-1.78s0.32-1.34 0.32-2.05c0-1.72-0.64-3.04-1.92-3.97"/>
    </g>
    <path fill="none" stroke="#000" stroke-width="1" d="m1200.1 919.72c0.08 0.03 0.16 0.06 0.24 0.08 223 75.68 223.98 74.98 223.98 74.98"/>
    <g transform="matrix(0.99999,0,0,0.99999,49.04,899.14)"/>
    <g transform="matrix(0.99999,0,0,0.99999,52.893406,902.4604)">
      <g transform="matrix(1.25,0,0,-1.25,-63.264,687.34)">
        <g clip-path="url(#clipPath288-5-2)">
          <g transform="translate(120.25,535.04)">
            <path d="M0 0C0.39 0 0.71 0.32 0.71 0.71 0.71 1.1 0.39 1.42 0 1.42-0.39 1.42-0.71 1.1-0.71 0.71-0.71 0.32-0.39 0 0 0M99.62-59.53 99.62-59.53c0.39 0 0.71 0.32 0.71 0.71 0 0.39-0.32 0.71-0.71 0.71-0.39 0-0.71-0.32-0.71-0.71 0-0.39 0.32-0.71 0.71-0.71" inkscape:connector-curvature="0"/>
          </g>
          <g transform="translate(60.709,476.93)">
            <path d="m0 0c-0.39 0-0.71-0.32-0.71-0.71 0-0.39 0.32-0.71 0.71-0.71 0.39 0 0.71 0.32 0.71 0.71C0.71-0.32 0.39 0 0 0" inkscape:connector-curvature="0"/>
          </g>
          <g transform="translate(65.553,545.67)">
            <path d="m0 0c-0.51 0-0.96-0.17-1.34-0.52-0.38-0.35-0.58-0.76-0.58-1.24l0-6.39-5.85 0 0 6.4c0 0.48-0.19 0.89-0.56 1.24C-8.7-0.17-9.16 0-9.69 0c-0.53 0-0.98-0.17-1.36-0.52-0.38-0.35-0.56-0.76-0.56-1.24l0-16.3c0-0.48 0.19-0.89 0.56-1.25 0.37-0.36 0.83-0.53 1.36-0.53 0.53 0 0.98 0.18 1.36 0.54 0.37 0.36 0.56 0.77 0.56 1.25l0 6.39 5.85 0 0-6.39c0-0.48 0.19-0.89 0.58-1.25 0.38-0.36 0.83-0.53 1.35-0.53 0.53 0 0.98 0.18 1.36 0.54 0.38 0.36 0.56 0.77 0.56 1.25l0 16.3c0 0.48-0.19 0.89-0.58 1.24C0.96-0.17 0.51 0 0 0" inkscape:connector-curvature="0"/>
          </g>
          <g transform="translate(96.449,477.51)">
            <path d="m0 0c-0.43 0.31-0.97 0.47-1.61 0.47l-2.99 0c-0.46 0-0.86-0.17-1.21-0.51-0.35-0.34-0.52-0.75-0.52-1.22 0-0.48 0.17-0.88 0.52-1.22 0.35-0.34 0.75-0.51 1.21-0.51l1.43 0 0-4.29c-0.31-0.16-0.65-0.3-1.02-0.41-0.37-0.11-0.79-0.16-1.26-0.16-1.23 0-2.08 0.35-2.57 1.04-0.49 0.7-0.73 1.63-0.73 2.8l0 5.44c0 1.19 0.24 2.13 0.73 2.82 0.49 0.69 1.34 1.03 2.57 1.03 0.44 0 0.84-0.06 1.21-0.18 0.37-0.12 0.72-0.28 1.07-0.48l0.28-0.16c0.18-0.11 0.35-0.21 0.5-0.29 0.15-0.08 0.38-0.12 0.69-0.12 0.53 0 0.97 0.17 1.31 0.49 0.34 0.33 0.51 0.72 0.51 1.16 0 0.4-0.16 0.78-0.48 1.14-0.32 0.36-0.75 0.67-1.28 0.94-0.53 0.26-1.14 0.48-1.81 0.63-0.68 0.16-1.38 0.23-2.12 0.23-1.21 0-2.25-0.17-3.13-0.51C-9.6 7.78-10.33 7.3-10.91 6.67-11.49 6.03-11.91 5.27-12.19 4.38-12.46 3.5-12.6 2.51-12.6 1.43l0-5.44c0-1.08 0.14-2.06 0.41-2.95 0.28-0.89 0.7-1.65 1.28-2.28 0.58-0.63 1.31-1.12 2.19-1.46 0.88-0.34 1.92-0.51 3.13-0.51 0.72 0 1.44 0.07 2.17 0.21 0.73 0.14 1.4 0.36 2.01 0.66 0.6 0.3 1.1 0.69 1.48 1.15 0.39 0.47 0.58 1.02 0.58 1.66l0 6.07C0.65-0.8 0.43-0.31 0 0" inkscape:connector-curvature="0"/>
          </g>
          <g transform="translate(100.81,515.43)">
            <path d="m0 0c-0.21 0.14-0.44 0.24-0.69 0.3-0.25 0.06-0.49 0.1-0.73 0.1-0.42 0-0.79-0.12-1.11-0.37-0.32-0.25-0.53-0.59-0.64-1.03l-1.76-7c-0.2-0.77-0.35-1.53-0.45-2.29-0.1-0.76-0.22-1.52-0.37-2.29-0.15 0.77-0.26 1.53-0.36 2.29-0.09 0.76-0.24 1.52-0.44 2.29l-1.59 6.45c-0.15 0.62-0.37 1.12-0.69 1.48-0.31 0.37-0.81 0.55-1.51 0.55-0.75 0-1.27-0.18-1.55-0.53-0.28-0.36-0.51-0.85-0.67-1.49l-1.62-6.45c-0.18-0.73-0.32-1.49-0.41-2.28-0.09-0.79-0.21-1.55-0.36-2.28-0.15 0.77-0.26 1.53-0.36 2.29-0.09 0.76-0.24 1.51-0.44 2.26l-1.81 7.08c-0.11 0.46-0.33 0.79-0.67 1-0.34 0.21-0.71 0.32-1.11 0.32-0.24 0-0.48-0.04-0.73-0.11-0.25-0.07-0.47-0.18-0.66-0.33-0.19-0.15-0.35-0.32-0.48-0.52-0.13-0.2-0.19-0.43-0.19-0.69 0.02-0.05 0.03-0.11 0.03-0.16 0.04-0.13 0.06-0.25 0.08-0.36l4.03-15.86c0.13-0.42 0.4-0.81 0.81-1.18 0.41-0.37 0.9-0.55 1.47-0.55 0.73 0 1.26 0.18 1.58 0.55 0.32 0.36 0.55 0.75 0.67 1.15l1.65 6.78c0.18 0.71 0.32 1.44 0.41 2.18 0.09 0.74 0.2 1.48 0.33 2.21 0.13-0.73 0.24-1.47 0.33-2.21 0.09-0.74 0.23-1.47 0.41-2.18l1.62-6.72c0.15-0.46 0.4-0.87 0.75-1.22 0.36-0.36 0.87-0.53 1.52-0.53 0.66 0 1.16 0.17 1.51 0.52 0.35 0.35 0.6 0.75 0.74 1.21l4.12 16c0.04 0.09 0.06 0.16 0.06 0.22l0 0.14c0 0.29-0.07 0.54-0.21 0.75C0.38-0.31 0.21-0.14 0 0" inkscape:connector-curvature="0"/>
          </g>
          <g transform="translate(84.469,542.14)">
            <path d="m0 0 4.09 0 0-14.53c0-0.48 0.19-0.9 0.57-1.25 0.38-0.35 0.84-0.53 1.38-0.53 0.54 0 1 0.18 1.38 0.53 0.38 0.35 0.57 0.77 0.57 1.25l0 14.53 4 0c0.54 0 1 0.17 1.39 0.52 0.39 0.34 0.58 0.76 0.58 1.24 0 0.5-0.2 0.92-0.61 1.26C12.93 3.36 12.48 3.53 11.98 3.53L0 3.53C-0.28 3.53-0.53 3.47-0.76 3.36-1 3.25-1.2 3.11-1.37 2.93-1.55 2.76-1.69 2.57-1.79 2.36-1.89 2.16-1.94 1.96-1.94 1.75-1.94 1.27-1.76 0.86-1.39 0.52-1.02 0.17-0.56 0 0 0" inkscape:connector-curvature="0"/>
          </g>
          <g transform="translate(125.25,466.29)">
            <path d="m0 0c-0.37 0-0.72 0.09-1.06 0.26-0.34 0.17-0.6 0.41-0.78 0.7l-6.37 11.09 0-10.26C-8.2 1.31-8.4 0.89-8.78 0.54-9.17 0.18-9.62 0-10.15 0c-0.53 0-0.98 0.18-1.34 0.54-0.37 0.36-0.55 0.77-0.55 1.25l0 16.19c0 0.53 0.19 0.97 0.56 1.33 0.38 0.36 0.86 0.54 1.44 0.54 0.37 0 0.72-0.09 1.06-0.28 0.34-0.18 0.61-0.43 0.81-0.74 0.6-1.06 1.16-2.03 1.66-2.91 0.5-0.88 1-1.74 1.48-2.59 0.49-0.85 0.98-1.73 1.5-2.63 0.51-0.91 1.09-1.91 1.73-3l0 10.37c0 0.48 0.19 0.89 0.58 1.25 0.39 0.36 0.84 0.54 1.37 0.54 0.53 0 0.98-0.18 1.35-0.53 0.37-0.36 0.55-0.77 0.55-1.25l0-16.19C2.03 1.35 1.84 0.92 1.47 0.55 1.09 0.18 0.6 0 0 0" inkscape:connector-curvature="0" fill="#009a93"/>
          </g>
          <g transform="translate(118.32,514.15)">
            <path d="M0 0C0 0.48 0.19 0.89 0.56 1.24 0.94 1.58 1.39 1.76 1.92 1.76 2.45 1.76 2.9 1.58 3.28 1.24 3.65 0.89 3.84 0.48 3.84 0l0-16.33c0-0.48-0.19-0.89-0.56-1.24-0.37-0.35-0.83-0.52-1.36-0.52-0.53 0-0.98 0.18-1.36 0.52C0.19-17.21 0-16.8 0-16.33L0 0Z" inkscape:connector-curvature="0" fill="#009a93"/>
          </g>
        </g>
      </g>
    </g>
  </g>
</svg>
